<svg width="5" height="18" viewBox="0 0 5 18" fill="none" xmlns="http://www.w3.org/2000/svg">
<path d="M4.54247 6.2726L0.261621 6.80911L0.108334 7.51946L0.949547 7.67462C1.49914 7.80548 1.60756 8.00363 1.48792 8.55135L0.108334 15.0343C-0.254323 16.7111 0.304617 17.5 1.61878 17.5C2.63758 17.5 3.82089 17.0289 4.3574 16.3821L4.5219 15.6045C4.14803 15.9335 3.60218 16.0643 3.23952 16.0643C2.72544 16.0643 2.53851 15.7035 2.67123 15.068L4.54247 6.2726ZM4.67332 2.36936C4.67332 2.86515 4.47637 3.34063 4.1258 3.6912C3.77522 4.04178 3.29974 4.23873 2.80396 4.23873C2.30817 4.23873 1.83269 4.04178 1.48212 3.6912C1.13154 3.34063 0.934593 2.86515 0.934593 2.36936C0.934593 1.87358 1.13154 1.3981 1.48212 1.04752C1.83269 0.69695 2.30817 0.5 2.80396 0.5C3.29974 0.5 3.77522 0.69695 4.1258 1.04752C4.47637 1.3981 4.67332 1.87358 4.67332 2.36936Z" fill="white"/>
</svg>
